<svg xmlns="http://www.w3.org/2000/svg" viewBox="0 0 70.866 16.921"><defs><style>.cls-1{fill:#fff}</style></defs><g id="Layer_2" data-name="Layer 2"><g id="Layer_1-2" data-name="Layer 1"><path class="cls-1" d="M26.177.353h-2.851a1.161 1.161 0 0 0-1.2 1.147c-.3 2.579-1.448 12.7-1.715 15.052h10.158l.386-3.393H24.7Zm32.544 16.199L55.243.353H51.18c-.713 0-.932.512-1.213 1.148-.022.049-4.384 10.006-6 13.7L41.17 8.22l5.3-7.867H41.8l-4.919 7.575s.865-7.418.881-7.575h-2.848a1.2 1.2 0 0 0-1.151 1.152c-.307 2.738-1.476 12.711-1.739 15.047H35.9c.145-1.309.912-8 .912-8l2.936 8H48l1.172-3.1h4.885l.434 3.1ZM50.25 10.6l2.32-6.117.062-.155a.059.059 0 0 1 .111.026l.9 6.246ZM66.773.353h-6.145l-1.85 16.195h6.207c3.33 0 5.076-1.545 5.405-4.446l.01-.091c.255-2.241-.64-3.45-2.255-3.79a3.834 3.834 0 0 0 2.671-3.542l.008-.094c.288-2.511-.87-4.232-4.051-4.232Zm-.118 11.125-.012.091a1.855 1.855 0 0 1-2 1.879h-1.6l.433-3.828h1.49c1.355 0 1.827.635 1.689 1.858Zm.469-6.436-.011.092a1.594 1.594 0 0 1-1.844 1.654H63.8l.382-3.353h1.468c1.169 0 1.601.499 1.474 1.607Z"/><path d="M8.46 16.921a8.46 8.46 0 0 0 7.555-4.648L8.331 9.208a1.987 1.987 0 0 0-.677-.159 1.513 1.513 0 0 0-.664.212l-5.907 3.345a8.459 8.459 0 0 0 7.377 4.315Z"/><path class="cls-1" d="M5.1 6.2a1.53 1.53 0 0 0-.624.173L0 8.706a8.44 8.44 0 0 0 1.08 3.9l5.91-3.345a1.513 1.513 0 0 1 .664-.212 1.987 1.987 0 0 1 .677.159l7.684 3.065a8.163 8.163 0 0 0 .424-.993L5.722 6.372A1.718 1.718 0 0 0 5.1 6.2Z"/><path d="m17.331 4.26.457-3.9h-3.861l.961 1.084-.8.7-.074-.064A8.46 8.46 0 0 0 0 8.461v.245l4.474-2.334A1.53 1.53 0 0 1 5.1 6.2a1.718 1.718 0 0 1 .624.173l10.715 4.907c.036-.1.068-.2.1-.3.022-.07.038-.142.057-.21.011-.04.018-.079.026-.118l-8.84-4.3 1.607-.876a.984.984 0 0 1 .536-.148 1.006 1.006 0 0 1 .523.175s3.07 1.8 6.42 3.783q0-.048.006-.1c.022-.242.047-.482.047-.729a8.419 8.419 0 0 0-1.3-4.512l-.021-.028.826-.739Z" style="fill:#0084c9"/><path class="cls-1" d="M9.925 5.328a.984.984 0 0 0-.536.148c-.227.12-1.608.879-1.608.879l8.84 4.3c.007-.037.015-.076.024-.113a7.437 7.437 0 0 0 .184-.833c.012-.08.018-.16.027-.24.007-.06.009-.121.012-.183-3.35-1.986-6.42-3.786-6.42-3.786a1.006 1.006 0 0 0-.523-.172Z"/></g></g></svg>